<svg id="Capa_1" enable-background="new 0 0 504.5 504.5" height="512" viewBox="0 0 504.5 504.5" width="512" xmlns="http://www.w3.org/2000/svg"><g><path d="m277.25 37.5 20 30c0 16.569 13.431 30 30 30h7.5c4.142 0 7.5-3.358 7.5-7.5v-45c0-4.142-3.358-7.5-7.5-7.5z" fill="#22aef4"/><path d="m267.25 7.5h-15v60h45v-30c0-16.569-13.431-30-30-30z" fill="#14cfff"/><path d="m252.25 0c-4.143 0-7.5 3.357-7.5 7.5v150h15v-150c0-4.143-3.357-7.5-7.5-7.5z" fill="#ff9c6c"/><path d="m470.75 504.5h22.5c4.142 0 7.5-3.358 7.5-7.5v-302c0-4.142-3.358-7.5-7.5-7.5h-22.5l-60 113.5z" fill="#666ddc"/><path d="m3.75 195v302c0 4.142 3.358 7.5 7.5 7.5h82.167l158.666-203.5.167.214v-113.714h-241c-4.142 0-7.5 3.358-7.5 7.5z" fill="#95b0ed"/><path d="m252.25 187.5v113.714l158.167 203.286h60.333v-47l-10-30 10-30v-30l-10-30 10-30v-30l-10-30 10-30v-30z" fill="#7d8fe5"/><path d="m380.75 504.5h30v-167l-158.5-45z" fill="#666ddc"/><path d="m93.75 337.5v167h90l68.5-30 68.5 30h60v-182z" fill="#7d8fe5"/><path d="m270.75 362.5 20 142h30v-122z" fill="#14cfff"/><path d="m222.25 362.5 30 142h38.5v-142z" fill="#6ce1ff"/><path d="m183.75 382.5v122h68.5v-152z" fill="#c4f3ff"/><path d="m240.75 322.5 50 60h30v-60z" fill="#c4f3ff"/><path d="m183.75 322.5h107v60h-107z" fill="#fff"/><path d="m380.75 127.5-128.5 90 128.5 120h30v-202.5c0-4.142-3.358-7.5-7.5-7.5z" fill="#95b0ed"/><path d="m380.75 127.5h-279.5c-4.142 0-7.5 3.358-7.5 7.5v202.5h287v-30l-20-30 20-30v-30l-20-30 20-30z" fill="#acd2f6"/><path d="m33.75 397.5h30v60h-30z" fill="#fff"/><path d="m33.75 307.5h30v60h-30z" fill="#ffe7b5"/><path d="m33.75 217.5h30v60h-30z" fill="#c4f3ff"/><path d="m440.75 397.5h30v60h-30z" fill="#ffe7b5"/><path d="m440.75 307.5h30v60h-30z" fill="#fff"/><path d="m440.75 217.5h30v60h-30z" fill="#ffe7b5"/><path d="m350.75 247.5-20 30 20 30h30v-60z" fill="#c4f3ff"/><path d="m123.75 247.5h227v60h-227z" fill="#fff"/><path d="m350.75 157.5-20 30 20 30h30v-60z" fill="#c4f3ff"/><path d="m123.75 157.5h227v60h-227z" fill="#fff"/></g></svg>